<svg xmlns="http://www.w3.org/2000/svg" width="1600" height="900" viewBox="0 0 1600 900" role="img" aria-labelledby="title desc">
<title id="title">cadre-03</title>
<desc id="desc">Illustration du Cadre conversationnel recréée dans un style Excalidraw.</desc>
<defs><marker id="arrow-1f2937" markerWidth="12" markerHeight="12" refX="10" refY="6" orient="auto-start-reverse" markerUnits="strokeWidth"><path d="M 1 1 L 11 6 L 1 11 z" fill="#1f2937"/></marker><marker id="arrow-94a3b8" markerWidth="12" markerHeight="12" refX="10" refY="6" orient="auto-start-reverse" markerUnits="strokeWidth"><path d="M 1 1 L 11 6 L 1 11 z" fill="#94a3b8"/></marker><marker id="arrow-2563eb" markerWidth="12" markerHeight="12" refX="10" refY="6" orient="auto-start-reverse" markerUnits="strokeWidth"><path d="M 1 1 L 11 6 L 1 11 z" fill="#2563eb"/></marker><marker id="arrow-e11d48" markerWidth="12" markerHeight="12" refX="10" refY="6" orient="auto-start-reverse" markerUnits="strokeWidth"><path d="M 1 1 L 11 6 L 1 11 z" fill="#e11d48"/></marker><marker id="arrow-0284c7" markerWidth="12" markerHeight="12" refX="10" refY="6" orient="auto-start-reverse" markerUnits="strokeWidth"><path d="M 1 1 L 11 6 L 1 11 z" fill="#0284c7"/></marker><marker id="arrow-ea580c" markerWidth="12" markerHeight="12" refX="10" refY="6" orient="auto-start-reverse" markerUnits="strokeWidth"><path d="M 1 1 L 11 6 L 1 11 z" fill="#ea580c"/></marker><marker id="arrow-7c3aed" markerWidth="12" markerHeight="12" refX="10" refY="6" orient="auto-start-reverse" markerUnits="strokeWidth"><path d="M 1 1 L 11 6 L 1 11 z" fill="#7c3aed"/></marker><marker id="arrow-ca8a04" markerWidth="12" markerHeight="12" refX="10" refY="6" orient="auto-start-reverse" markerUnits="strokeWidth"><path d="M 1 1 L 11 6 L 1 11 z" fill="#ca8a04"/></marker><marker id="arrow-16a34a" markerWidth="12" markerHeight="12" refX="10" refY="6" orient="auto-start-reverse" markerUnits="strokeWidth"><path d="M 1 1 L 11 6 L 1 11 z" fill="#16a34a"/></marker></defs>
<rect width="1600" height="900" fill="#ffffff"/>
<text x="800" y="101" text-anchor="middle" fill="#082d6d" opacity="1" font-family="Arial, Helvetica, sans-serif" font-size="46" font-weight="500" font-style="normal">
<tspan x="800" y="101">What does it take to learn in formal education?</tspan>
</text>
<g opacity="1">
<rect x="680" y="210" width="255" height="545" rx="42" fill="#dedede" stroke="#888888" stroke-width="1.8"/>
<rect x="681.2" y="209.3" width="254" height="545.4" rx="42" fill="none" stroke="#888888" stroke-width="1.05" opacity=".48"/>
</g>
<g opacity="1">
<rect x="690" y="258" width="225" height="105" rx="20" fill="#ffffff" stroke="#5f5f5f" stroke-width="2"/>
<rect x="691.2" y="257.3" width="224" height="105.4" rx="20" fill="none" stroke="#5f5f5f" stroke-width="1.05" opacity=".48"/>
</g>
<text x="802.5" y="302.75" text-anchor="middle" fill="#7d7d7d" opacity="1" font-family="Arial, Helvetica, sans-serif" font-size="31" font-weight="700" font-style="normal">
<tspan x="802.5" y="302.75">Learner</tspan>
<tspan x="802.5" y="339.95">concepts</tspan>
</text>
<g opacity="1">
<rect x="690" y="612" width="225" height="105" rx="20" fill="#ffffff" stroke="#5f5f5f" stroke-width="2"/>
<rect x="691.2" y="611.3" width="224" height="105.4" rx="20" fill="none" stroke="#5f5f5f" stroke-width="1.05" opacity=".48"/>
</g>
<text x="802.5" y="656.75" text-anchor="middle" fill="#7d7d7d" opacity="1" font-family="Arial, Helvetica, sans-serif" font-size="31" font-weight="700" font-style="normal">
<tspan x="802.5" y="656.75">Learner</tspan>
<tspan x="802.5" y="693.95">practice</tspan>
</text>
<g opacity="1">
<path d="M 750 258 Q 802 220 855 258" fill="none" stroke="#ff1f1f" stroke-width="3" stroke-linecap="round" stroke-linejoin="round"/>
<path d="M 750 258 Q 802 220 855 258" transform="translate(.9,-.7)" fill="none" stroke="#ff1f1f" stroke-width="1.15" stroke-linecap="round" opacity=".52"/>

<path d="M 855 258 L 836.302622727179 255.76086889222643 L 846.8784058124824 241.01043458904024 Z" fill="#ff1f1f" stroke="#ff1f1f" stroke-width="1"/>
</g>
<g opacity="1">
<path d="M 855 363 Q 802 397 750 363" fill="none" stroke="#ff1f1f" stroke-width="3" stroke-linecap="round" stroke-linejoin="round"/>
<path d="M 855 363 Q 802 397 750 363" transform="translate(.9,-.7)" fill="none" stroke="#ff1f1f" stroke-width="1.15" stroke-linecap="round" opacity=".52"/>

<path d="M 750 363 L 768.7762865996316 364.4341152424047 L 758.8437106614955 379.62511373602456 Z" fill="#ff1f1f" stroke="#ff1f1f" stroke-width="1"/>
</g>
<g opacity="1">
<path d="M 750 612 Q 802 575 855 612" fill="none" stroke="#ff1f1f" stroke-width="3" stroke-linecap="round" stroke-linejoin="round"/>
<path d="M 750 612 Q 802 575 855 612" transform="translate(.9,-.7)" fill="none" stroke="#ff1f1f" stroke-width="1.15" stroke-linecap="round" opacity=".52"/>

<path d="M 855 612 L 836.2759477412535 609.9961307398615 L 846.6654354976404 595.1138915212531 Z" fill="#ff1f1f" stroke="#ff1f1f" stroke-width="1"/>
</g>
<g opacity="1">
<path d="M 855 717 Q 802 755 750 717" fill="none" stroke="#ff1f1f" stroke-width="3" stroke-linecap="round" stroke-linejoin="round"/>
<path d="M 855 717 Q 802 755 750 717" transform="translate(.9,-.7)" fill="none" stroke="#ff1f1f" stroke-width="1.15" stroke-linecap="round" opacity=".52"/>

<path d="M 750 717 L 768.6763540655368 719.4081992896577 L 757.9675529689739 734.0623481586385 Z" fill="#ff1f1f" stroke="#ff1f1f" stroke-width="1"/>
</g>
<g opacity="1">
<path d="M 705 363 Q 665 488 705 612" fill="none" stroke="#ff1f1f" stroke-width="3" stroke-linecap="round" stroke-linejoin="round"/>
<path d="M 705 363 Q 665 488 705 612" transform="translate(.9,-.7)" fill="none" stroke="#ff1f1f" stroke-width="1.15" stroke-linecap="round" opacity=".52"/>

<path d="M 705 612 L 691.2976984250975 599.08285803475 L 708.5712098374515 593.5107575791519 Z" fill="#ff1f1f" stroke="#ff1f1f" stroke-width="1"/>
</g>
<g opacity="1">
<path d="M 900 612 Q 940 488 900 363" fill="none" stroke="#ff1f1f" stroke-width="3" stroke-linecap="round" stroke-linejoin="round"/>
<path d="M 900 612 Q 940 488 900 363" transform="translate(.9,-.7)" fill="none" stroke="#ff1f1f" stroke-width="1.15" stroke-linecap="round" opacity=".52"/>

<path d="M 900 363 L 913.6720486330463 375.949158705322 L 896.3855503613785 381.4808381522557 Z" fill="#ff1f1f" stroke="#ff1f1f" stroke-width="1"/>
</g>
</svg>
